<svg width="47" height="54" xmlns="http://www.w3.org/2000/svg">
    <g>
        <g stroke="null" id="layer1">
            <path stroke="null" fill="#795548" id="path3922" d="m23.1754,0.989045c-0.094939,0.003229 -0.204074,0.037966 -0.263864,0.121789l-13.427037,16.065789c-0.223436,0.279722 -0.238528,0.342142 0.0609,0.345067l26.894684,-0.071061c0.369621,-0.030202 0.371246,-0.011684 0.131927,-0.324766l-13.193627,-16.065759c-0.027277,-0.042477 -0.107975,-0.073394 -0.202982,-0.071059zm2.577856,1.431017l12.107686,14.726098c0.162183,0.196679 0.201712,0.207854 0.487158,0.071061l6.383652,-2.922896c0.418146,-0.18872 0.360204,-0.22737 0.081195,-0.416122l-19.059691,-11.45814zm-5.652957,0.537878c-0.005659,-0.012017 -0.104107,0.061574 -0.324775,0.213143l-17.57795,11.569795l5.500719,2.496639c0.28696,0.094606 0.372682,0.099671 0.55817,-0.13195l11.60027,-13.853292c0.163505,-0.189176 0.249016,-0.282318 0.243566,-0.294335zm5.561616,5.866087c0.777006,0.000033 1.399056,0.2679 1.857249,0.801783c0.457981,0.531222 0.716462,1.290199 0.78149,2.273363c0.064778,0.980534 -0.099585,1.739483 -0.48717,2.273363c-0.387773,0.531221 -0.968604,0.791617 -1.745608,0.791617c-0.779697,0 -1.399283,-0.260397 -1.857276,-0.791617c-0.458151,-0.53388 -0.716637,-1.292829 -0.781451,-2.273363c-0.065027,-0.983164 0.099373,-1.742141 0.487145,-2.273363c0.387587,-0.533884 0.965911,-0.80175 1.745621,-0.801783zm-5.10494,0.060895c0.708325,0.000033 1.239404,0.15501 1.58324,0.466853c0.346473,0.311872 0.470288,0.74141 0.385649,1.299064c-0.048923,0.322461 -0.176627,0.623131 -0.385649,0.903272c-0.208623,0.277511 -0.61299,0.658723 -1.217867,1.126518l-1.430987,1.106248l2.598126,0l-0.162382,1.116385l-4.30315,0l0.172526,-1.116385l2.445901,-1.907998c0.219375,-0.174432 0.389644,-0.340941 0.507443,-0.507448c0.11776,-0.166508 0.185831,-0.348019 0.21311,-0.527747c0.042127,-0.27751 -0.010685,-0.500689 -0.172496,-0.669828c-0.159374,-0.169137 -0.401226,-0.253708 -0.710452,-0.253739c-0.237879,0.000032 -0.503339,0.059333 -0.801775,0.162382c-0.298042,0.100452 -0.621367,0.245719 -0.974303,0.446555l0.192851,-1.299066c0.360822,-0.113639 0.711017,-0.195576 1.055499,-0.253708c0.344862,-0.060795 0.682288,-0.091324 1.004716,-0.091358zm5.175982,0.984465c-0.327732,0 -0.549852,0.152768 -0.669838,0.456687c-0.120161,0.301319 -0.160562,0.822924 -0.111628,1.562936c0.049437,0.747969 0.154258,1.266524 0.314592,1.573104c0.160351,0.30658 0.403019,0.466849 0.730738,0.466849c0.325091,0 0.55002,-0.160269 0.669825,-0.466849c0.119803,-0.30658 0.161088,-0.825134 0.111651,-1.573104c-0.048948,-0.740012 -0.154664,-1.261617 -0.31463,-1.562936c-0.157515,-0.303918 -0.403009,-0.456687 -0.730709,-0.456687zm-14.594201,0.82205c0.14071,0 0.239527,0.035235 0.284161,0.111651c0.088295,0.151993 -0.023358,0.44834 -0.324748,0.90324c-0.302341,0.456523 -0.649549,0.844651 -1.045341,1.156979c-0.396844,0.311483 -0.835793,0.545865 -1.30922,0.700293c-0.307047,0.100159 -0.518906,0.126431 -0.639357,0.071026c-0.121556,-0.056249 -0.149572,-0.196709 -0.081197,-0.405958c-0.228725,0.241887 -0.467621,0.451718 -0.720592,0.619101c-0.252932,0.167355 -0.510634,0.297326 -0.78145,0.385659c-0.403074,0.131467 -0.645806,0.121886 -0.710426,-0.030526c-0.064669,-0.152314 0.051269,-0.44454 0.334892,-0.872809c0.281553,-0.42512 0.596398,-0.785739 0.954017,-1.07579c0.355466,-0.289365 0.741668,-0.497084 1.146837,-0.629234c0.270816,-0.088335 0.459777,-0.111586 0.568341,-0.060893c0.109583,0.049106 0.135038,0.170372 0.081183,0.355198c0.247469,-0.267642 0.509056,-0.493093 0.791634,-0.679963c0.281474,-0.187748 0.575861,-0.336231 0.882935,-0.436423c0.236719,-0.077197 0.427645,-0.11123 0.56833,-0.111621l0,0.000068zm27.087548,0.243573c0.241599,0.202167 0.464839,0.411252 0.669825,0.608935c0.206529,0.197685 0.394048,0.388386 0.558172,0.578506c0.360559,0.41765 0.552275,0.742415 0.568353,0.974298c0.017529,0.233444 -0.13955,0.352989 -0.466871,0.355198c-0.189223,0 -0.41047,-0.055144 -0.659654,-0.152219c-0.247668,-0.097071 -0.641124,-0.295991 -1.187436,-0.608934l-1.299067,-0.740892l1.329534,1.532506l-0.659695,0.010069l-2.192178,-2.537235l0.659681,-0.010069l2.222611,1.268633c0.200617,0.113051 0.372772,0.199828 0.517611,0.253708c0.144826,0.053912 0.270025,0.081906 0.37549,0.081192c0.162869,0 0.239822,-0.061219 0.243593,-0.172516c0.00516,-0.109772 -0.065871,-0.254064 -0.223281,-0.436419c-0.121083,-0.140235 -0.282711,-0.300506 -0.487155,-0.466853c-0.202902,-0.166344 -0.448696,-0.338406 -0.730736,-0.527744l0.761204,-0.010069l0,-0.000093zm-27.99077,0.679994c-0.075313,0.00714 -0.177023,0.022732 -0.294345,0.060893c-0.236681,0.077199 -0.446321,0.184857 -0.629241,0.314604c-0.185015,0.130455 -0.335368,0.278711 -0.446544,0.446554c-0.112209,0.169427 -0.13661,0.284979 -0.071027,0.334929c0.065538,0.04995 0.222104,0.035917 0.456687,-0.040597c0.234571,-0.076515 0.443168,-0.182584 0.629226,-0.314632c0.18396,-0.131301 0.334353,-0.287255 0.446557,-0.456685c0.111179,-0.167841 0.135515,-0.275697 0.071056,-0.324766c-0.033317,-0.024035 -0.087093,-0.027282 -0.162368,-0.020141l0,-0.000158zm-2.202336,0.77132c-0.060319,0.00456 -0.138534,0.019801 -0.233422,0.05073c-0.18979,0.06193 -0.356326,0.154326 -0.50743,0.263869c-0.153292,0.110258 -0.282042,0.234354 -0.375543,0.37553c-0.095573,0.144325 -0.121456,0.239124 -0.071031,0.284169c0.051441,0.043487 0.177685,0.030853 0.365377,-0.030528c0.189787,-0.061901 0.354149,-0.143481 0.507442,-0.253739c0.154296,-0.111819 0.279918,-0.241333 0.375478,-0.385659c0.093515,-0.141177 0.122521,-0.230519 0.071067,-0.274006c-0.025655,-0.021752 -0.071648,-0.035043 -0.131938,-0.03053l0,0.000165zm37.632256,2.598126c-0.05462,0.003911 -0.140803,0.035336 -0.274008,0.091324l-6.556216,2.993955c-0.232788,0.105678 -0.218133,0.24809 -0.131937,0.426257l7.621855,19.333712l-0.548027,-22.52048c-0.016893,-0.246271 -0.020459,-0.331296 -0.111666,-0.324768zm-43.965192,0.598773l-0.700266,21.911576l6.454719,-18.958219c0.09535,-0.27998 0.093107,-0.294139 -0.101497,-0.385659l-5.652956,-2.567698zm35.095027,2.841703l-27.503639,0.071061c-0.393059,-0.005842 -0.376785,-0.005509 -0.182665,0.3146l13.964934,23.555704c0.235835,0.359455 0.210617,0.348149 0.456703,-0.020139l13.416916,-23.596303c0.117432,-0.187424 0.201531,-0.318563 -0.152249,-0.324768l0,-0.000155zm1.096085,0.619103c-0.02534,0.010735 -0.053025,0.10623 -0.131927,0.253709l-13.508249,23.768814c-0.147382,0.250915 -0.182431,0.340843 0.172538,0.284171l21.444697,-2.953324c0.340104,-0.07765 0.329776,-0.199276 0.21315,-0.53791l-8.088729,-20.551586c-0.05351,-0.196876 -0.076052,-0.274526 -0.10148,-0.263874zm-29.65521,0.223278c-0.026299,0.018826 -0.04995,0.118995 -0.101495,0.26387l-6.850509,20.165927c-0.116651,0.428434 -0.129843,0.589386 0.304464,0.669833l20.490707,2.963488c0.387468,0.058232 0.337913,-0.13692 0.243565,-0.324763l-13.944648,-23.525244c-0.087766,-0.177715 -0.115902,-0.232014 -0.142083,-0.213112zm37.287209,0.26387l0.040596,0.842344l-0.690109,0.446554l0.162368,3.054849l0.690124,-0.679998l0.050768,0.832215l-0.700293,0.669832l-0.740865,0.477015l-0.202982,-3.887061l-0.324748,0.202977l0.01002,0.243575c-0.151986,-0.021114 -0.30011,-0.011701 -0.446544,0.020141c-0.147702,0.034977 -0.286933,0.09415 -0.42626,0.18268c-0.206975,0.131531 -0.363052,0.285341 -0.466844,0.466853c-0.105149,0.182387 -0.152871,0.379651 -0.142096,0.588637c0.010952,0.215355 0.073535,0.337953 0.192826,0.37553c0.118036,0.040531 0.286972,-0.003229 0.507442,-0.142086l0.314647,-0.202981l0.040584,0.791621l-0.324761,0.202976c-0.196148,0.124615 -0.345262,0.270208 -0.436414,0.426257c-0.09104,0.158127 -0.13189,0.331389 -0.121797,0.527745c0.009354,0.181542 0.063945,0.294984 0.162368,0.334899c0.098474,0.03991 0.235531,0.006807 0.405958,-0.10149c0.125819,-0.079923 0.249304,-0.188592 0.375543,-0.314602c0.126231,-0.126008 0.252787,-0.269068 0.375493,-0.436421l0.040586,0.893109c-0.150709,0.165565 -0.296748,0.30635 -0.446547,0.436419c-0.149784,0.130038 -0.300427,0.242079 -0.446557,0.334899c-0.393642,0.250134 -0.687855,0.34276 -0.893104,0.263874c-0.206474,-0.075897 -0.324184,-0.315221 -0.345062,-0.720558c-0.014214,-0.276573 0.017231,-0.534696 0.101485,-0.771322c0.084309,-0.234544 0.216893,-0.451589 0.395815,-0.639398c-0.20852,0.04748 -0.371098,0.005859 -0.48713,-0.13192c-0.117314,-0.134778 -0.176654,-0.355261 -0.192851,-0.669828c-0.024032,-0.46867 0.06682,-0.897916 0.284166,-1.288933c0.217461,-0.388908 0.553606,-0.724521 0.994598,-1.004731c0.155563,-0.098859 0.307881,-0.183977 0.466846,-0.243573c0.032512,-0.012649 0.068652,-0.019483 0.101495,-0.030528l0.01002,-0.010069l2.110983,-1.339656l0.000235,0.000156zm-43.244614,1.644127c0.103474,-0.006807 0.211963,0.026956 0.334906,0.101489c0.271027,0.164169 0.469298,0.472017 0.588628,0.923537c0.007506,0.028582 0.013598,0.061998 0.020137,0.091358l0.040586,-0.537911l1.461459,0.882977l-0.060898,0.740855l-0.476975,-0.284171l-0.21315,2.659022l0.497314,0.101489l-0.050753,0.720592l-0.50747,-0.091356l-0.507445,-0.3146l0.274048,-3.389747l-0.416129,-0.243575c0.062402,0.388775 0.082793,0.836534 0.040599,1.349792c-0.056058,0.682008 -0.190583,1.157174 -0.39579,1.441148c-0.206279,0.285276 -0.458507,0.335583 -0.761191,0.152252c-0.095893,-0.058102 -0.186086,-0.128933 -0.273996,-0.213143c-0.087924,-0.084212 -0.180254,-0.18174 -0.263892,-0.294303l0.060913,-0.761187c0.081633,0.136564 0.168513,0.248839 0.243565,0.334931c0.074879,0.087947 0.148782,0.157836 0.223281,0.202981c0.160176,0.097007 0.291838,0.082195 0.395802,-0.040596c0.103804,-0.120944 0.16974,-0.352633 0.213137,-0.690127c-0.068918,0.053064 -0.13781,0.080379 -0.213137,0.08119c-0.075524,0.003246 -0.15882,-0.019823 -0.24358,-0.071059c-0.213268,-0.129162 -0.36693,-0.353996 -0.476985,-0.679963c-0.111047,-0.326554 -0.154705,-0.696105 -0.121797,-1.096087c0.036352,-0.442366 0.136279,-0.755018 0.304464,-0.9337c0.084031,-0.088435 0.180675,-0.135104 0.284176,-0.142088l0.000175,0zm0.152197,0.740859c-0.037826,0.008422 -0.073243,0.035396 -0.101455,0.08119c-0.057509,0.092881 -0.091787,0.255848 -0.11164,0.497312c-0.019823,0.241464 -0.017193,0.440059 0.020141,0.58864c0.036561,0.149847 0.107985,0.257086 0.202992,0.3146c0.094032,0.056998 0.165745,0.032154 0.223266,-0.060891c0.056424,-0.091586 0.091789,-0.255821 0.111625,-0.497284c0.019823,-0.241463 0.016244,-0.438791 -0.020141,-0.588638c-0.037643,-0.148581 -0.098766,-0.247504 -0.192811,-0.304466c-0.047508,-0.028909 -0.094082,-0.038975 -0.131963,-0.030531l-0.000013,0.000068zm16.116531,1.50204l1.441158,0l0,1.075788l2.628586,0l0,1.309233l-2.37485,3.531828l-1.694894,0l0,-3.73481l-0.842347,0l0,-1.106251l0.842347,0l0,-1.075788zm4.993288,0l4.130641,0l0,1.055492l-1.339663,0l0,3.826168l1.380232,-0.284172l0,1.035192l-1.380232,0.284169l-1.451328,0l0,-4.861357l-1.33965,0l0,-1.055492zm-3.55213,2.182039l0,2.486477l1.674582,-2.486477l-1.674582,0zm-10.19967,4.475667l0.954002,1.299064l-0.446557,0.294337c0.068889,0.015595 0.132662,0.027281 0.202977,0.050727c0.560454,0.189048 1.076116,0.607021 1.542642,1.238171c0.514197,0.695713 0.72157,1.353075 0.619071,1.989193c-0.106206,0.635048 -0.518521,1.187151 -1.22801,1.654297c-0.727174,0.478768 -1.458951,0.638488 -2.202324,0.466849c-0.747104,-0.172742 -1.404767,-0.654012 -1.979043,-1.431016c-0.181993,-0.246239 -0.347199,-0.488256 -0.487145,-0.740857c-0.139971,-0.252602 -0.260395,-0.512937 -0.365361,-0.781488l0.811921,-0.537875c0.079427,0.285341 0.17698,0.543334 0.284162,0.771319c0.105177,0.229284 0.223992,0.437979 0.365359,0.629236c0.303925,0.411187 0.636273,0.66603 0.99459,0.771317c0.35634,0.106588 0.728782,0.062908 1.126513,-0.142081c-0.212899,-0.09438 -0.405395,-0.222502 -0.588628,-0.375528c-0.185198,-0.151731 -0.356786,-0.340616 -0.517571,-0.558179c-0.404668,-0.54749 -0.604641,-1.075137 -0.588653,-1.583233c0.014247,-0.510499 0.233197,-0.906649 0.659681,-1.187444c0.117931,-0.077618 0.241772,-0.136173 0.365347,-0.18268l-0.659656,-0.893106l1.136682,-0.751021zm25.900099,1.877571l1.106214,0.852512l1.765921,4.140767l-0.882948,1.309198l-3.186766,-2.435746l-0.436416,0.649531l-0.943846,-0.72056l0.446559,-0.659697l-0.923559,-0.700261l0.761179,-1.116382l0.913388,0.710427l1.380274,-2.029788zm-25.138947,1.025024c-0.171933,0.011368 -0.354942,0.085998 -0.548042,0.213145c-0.257441,0.169493 -0.398785,0.352147 -0.436389,0.558177c-0.041378,0.20496 0.022727,0.436126 0.202967,0.679994c0.178473,0.241464 0.378949,0.379586 0.598784,0.416091c0.216091,0.035431 0.45298,-0.033451 0.710421,-0.202981c0.257482,-0.169493 0.405209,-0.353247 0.44656,-0.558174c0.037643,-0.206031 -0.024681,-0.43853 -0.202967,-0.679994c-0.180252,-0.243834 -0.382692,-0.380658 -0.598783,-0.416094c-0.054991,-0.009104 -0.115228,-0.013964 -0.172551,-0.010053l0,-0.000112zm25.575323,0.436424l-0.872792,1.288896l2.110972,1.623834l-1.238179,-2.91273zm-33.217464,8.129285l20.105046,11.407412c0.260318,0.157768 0.32115,0.100282 0.284166,-0.172529l-0.42626,-7.997356c-0.011601,-0.258091 -0.046573,-0.363185 -0.31459,-0.405958l-19.648361,-2.831568zm41.57007,0.020139l-20.409538,2.821409c-0.269298,0.039685 -0.22068,0.171898 -0.223279,0.365361l0.436416,8.139467c0.022429,0.246967 0.015212,0.335512 0.314595,0.182679l19.881806,-11.508915zm-12.777525,3.511538l1.4919,1.654282l1.167111,-0.690122l0.324763,0.365357l-3.064987,1.816653l-0.497271,0.294323l-3.064987,1.816672l-0.324773,-0.355226l1.167124,-0.690124l-1.187426,-1.299062l-1.09607,0.801767l-0.324776,-0.35521l1.096112,-0.791617l1.248295,-0.74088l1.502043,1.65429l0.659682,-0.395819l0.497286,-0.294322l0.659695,-0.3958l-1.177282,-1.299062l-1.106253,0.801767l-0.314579,-0.355228l1.09607,-0.801748l1.248322,-0.74089zm-13.416921,0.243576c0.394907,0.01794 0.751484,0.154421 1.085954,0.405948c0.371349,0.279277 0.528586,0.580478 0.466871,0.91341c-0.061782,0.33295 -0.337386,0.665827 -0.822087,0.994611c-0.288295,0.195554 -0.58619,0.329139 -0.882948,0.416096l0.34506,0.263879l-0.781491,0.527739l-0.690109,-0.517591l0.253723,-0.172531c-0.432235,-0.028349 -0.822646,-0.169726 -1.177268,-0.436409c-0.133536,-0.100412 -0.254673,-0.198041 -0.355231,-0.304469c-0.101866,-0.105515 -0.18859,-0.218598 -0.263867,-0.334914l0.558212,-0.375505c0.059104,0.127268 0.125754,0.234482 0.202967,0.334914c0.078532,0.099515 0.169728,0.195593 0.274008,0.274026c0.218727,0.164495 0.46042,0.248668 0.710422,0.253713c0.251336,0.004111 0.506744,-0.077986 0.78149,-0.233417c-0.15382,-0.019342 -0.294701,-0.050682 -0.426273,-0.101495c-0.131581,-0.050813 -0.250911,-0.116896 -0.365332,-0.202974c-0.291261,-0.219009 -0.436166,-0.464256 -0.436414,-0.720585c0.003179,-0.256254 0.153003,-0.480868 0.446531,-0.679974c0.324485,-0.220092 0.682171,-0.321233 1.075785,-0.304469zm0.172551,0.60894c-0.153728,0.011401 -0.312139,0.074098 -0.487145,0.192826c-0.176387,0.119642 -0.280471,0.236014 -0.304463,0.34506c-0.02274,0.10815 0.033912,0.207871 0.16237,0.304471c0.128455,0.096599 0.263705,0.142536 0.416102,0.131938c0.153702,-0.011584 0.320937,-0.08333 0.497299,-0.202974c0.175032,-0.118727 0.270316,-0.225866 0.29432,-0.334912c0.024034,-0.109065 -0.023702,-0.218018 -0.152224,-0.314637c-0.128485,-0.09658 -0.272532,-0.133285 -0.42626,-0.121772z"/>
        </g>
    </g>
</svg>
